<mxfile host="app.diagrams.net" modified="2024-01-18T06:13:18.608Z" agent="Mozilla/5.0 (Windows NT 10.0; Win64; x64) AppleWebKit/537.36 (KHTML, like Gecko) Chrome/113.0.0.0 Safari/537.36" version="22.1.16" etag="OF1KgNM3rbdCw82y7dKa" type="github">
  <diagram name="第 1 页" id="doF77sdtMhHxX-if5BlV">
    <mxGraphModel>
      <root>
        <mxCell id="0" />
        <mxCell id="1" parent="0" />
      </root>
    </mxGraphModel>
  </diagram>
</mxfile>
